<svg width="822" height="232" viewBox="0 0 822 232" fill="none" xmlns="http://www.w3.org/2000/svg">
<rect x="94.8301" y="11.4893" width="726.67" height="202.916" stroke="#BDBDBD" stroke-dasharray="1 1"/>
<path d="M94.3301 36.6309H822" stroke="#BDBDBD" stroke-dasharray="2 2"/>
<path d="M94.3301 62.2734H822" stroke="#BDBDBD" stroke-dasharray="2 2"/>
<path d="M94.3301 87.915H822" stroke="#BDBDBD" stroke-dasharray="2 2"/>
<path d="M94.3301 113.558H822" stroke="#BDBDBD" stroke-dasharray="2 2"/>
<path d="M94.3301 139.2H822" stroke="#BDBDBD" stroke-dasharray="2 2"/>
<path d="M94.3301 164.842H822" stroke="#BDBDBD" stroke-dasharray="2 2"/>
<path d="M94.3301 189.263H822" stroke="#BDBDBD" stroke-dasharray="2 2"/>
<path d="M210.218 10.9893L210.218 215.163" stroke="#BDBDBD" stroke-dasharray="2 2"/>
<path d="M148.231 10.9893L148.231 215.163" stroke="#BDBDBD" stroke-dasharray="2 2"/>
<path d="M272.205 10.9893L272.205 215.163" stroke="#BDBDBD" stroke-dasharray="2 2"/>
<path d="M334.191 10.9893L334.191 215.163" stroke="#BDBDBD" stroke-dasharray="2 2"/>
<path d="M396.178 10.9893L396.178 215.163" stroke="#BDBDBD" stroke-dasharray="2 2"/>
<path d="M458.165 10.9893L458.165 215.163" stroke="#BDBDBD" stroke-dasharray="2 2"/>
<path d="M520.152 10.9893L520.152 215.163" stroke="#BDBDBD" stroke-dasharray="2 2"/>
<path d="M582.139 10.9893L582.139 215.163" stroke="#BDBDBD" stroke-dasharray="2 2"/>
<path d="M644.125 10.9893L644.125 215.163" stroke="#BDBDBD" stroke-dasharray="2 2"/>
<path d="M706.112 10.9893L706.112 215.163" stroke="#BDBDBD" stroke-dasharray="2 2"/>
<path d="M768.099 10.9893L768.099 215.163" stroke="#BDBDBD" stroke-dasharray="2 2"/>
<path d="M97.6259 222.244H98.4185V226.923C98.4185 227.34 98.3418 227.695 98.1884 227.987C98.035 228.279 97.8188 228.5 97.5396 228.652C97.2605 228.803 96.9313 228.879 96.5521 228.879C96.1941 228.879 95.8756 228.814 95.5965 228.684C95.3173 228.551 95.0979 228.364 94.9381 228.121C94.7783 227.878 94.6984 227.589 94.6984 227.255H95.4782C95.4782 227.44 95.524 227.602 95.6156 227.741C95.7094 227.877 95.8372 227.984 95.9992 228.06C96.1611 228.137 96.3454 228.175 96.5521 228.175C96.7801 228.175 96.9739 228.127 97.1337 228.032C97.2935 227.936 97.415 227.795 97.4981 227.61C97.5833 227.422 97.6259 227.193 97.6259 226.923V222.244ZM101.349 228.904C101.038 228.904 100.756 228.846 100.502 228.728C100.249 228.609 100.047 228.438 99.8983 228.214C99.7492 227.988 99.6746 227.715 99.6746 227.396C99.6746 227.114 99.73 226.886 99.8408 226.712C99.9516 226.535 100.1 226.396 100.285 226.296C100.47 226.196 100.675 226.121 100.899 226.072C101.125 226.021 101.351 225.981 101.579 225.951C101.878 225.913 102.12 225.884 102.305 225.865C102.492 225.843 102.629 225.808 102.714 225.759C102.801 225.71 102.845 225.625 102.845 225.504V225.478C102.845 225.163 102.759 224.918 102.586 224.743C102.416 224.568 102.157 224.481 101.81 224.481C101.449 224.481 101.167 224.56 100.963 224.717C100.758 224.875 100.614 225.043 100.531 225.222L99.8152 224.967C99.943 224.668 100.114 224.436 100.327 224.27C100.542 224.102 100.776 223.984 101.03 223.918C101.285 223.85 101.537 223.816 101.784 223.816C101.942 223.816 102.123 223.835 102.327 223.874C102.534 223.91 102.733 223.985 102.925 224.1C103.119 224.216 103.28 224.389 103.408 224.621C103.535 224.854 103.599 225.165 103.599 225.555V228.789H102.845V228.124H102.807C102.756 228.231 102.67 228.345 102.551 228.466C102.432 228.588 102.273 228.691 102.075 228.776C101.877 228.862 101.635 228.904 101.349 228.904ZM101.464 228.227C101.763 228.227 102.014 228.168 102.219 228.051C102.425 227.934 102.581 227.782 102.685 227.597C102.792 227.412 102.845 227.217 102.845 227.012V226.322C102.813 226.36 102.743 226.395 102.634 226.427C102.528 226.457 102.404 226.484 102.263 226.507C102.125 226.528 101.99 226.548 101.857 226.565C101.727 226.58 101.622 226.592 101.541 226.603C101.345 226.629 101.162 226.67 100.991 226.728C100.823 226.783 100.687 226.867 100.582 226.98C100.48 227.091 100.429 227.242 100.429 227.434C100.429 227.696 100.526 227.894 100.72 228.028C100.916 228.161 101.164 228.227 101.464 228.227ZM105.73 225.836V228.789H104.976V223.88H105.705V224.647H105.769C105.884 224.398 106.058 224.197 106.293 224.046C106.527 223.893 106.83 223.816 107.2 223.816C107.533 223.816 107.824 223.884 108.073 224.021C108.322 224.155 108.516 224.359 108.655 224.634C108.793 224.907 108.862 225.252 108.862 225.67V228.789H108.108V225.721C108.108 225.335 108.008 225.035 107.808 224.82C107.607 224.602 107.333 224.494 106.983 224.494C106.742 224.494 106.527 224.546 106.337 224.65C106.15 224.755 106.002 224.907 105.893 225.107C105.785 225.308 105.73 225.55 105.73 225.836Z" fill="#4F4F4F"/>
<path d="M149.022 228.789V222.244H152.946V222.947H149.814V225.158H152.652V225.862H149.814V228.789H149.022ZM155.899 228.891C155.426 228.891 155.018 228.787 154.675 228.578C154.334 228.367 154.071 228.073 153.886 227.696C153.703 227.317 153.611 226.876 153.611 226.373C153.611 225.87 153.703 225.427 153.886 225.043C154.071 224.658 154.329 224.357 154.659 224.142C154.992 223.925 155.38 223.816 155.823 223.816C156.078 223.816 156.331 223.859 156.58 223.944C156.83 224.029 157.056 224.168 157.261 224.359C157.466 224.549 157.629 224.8 157.75 225.114C157.871 225.427 157.932 225.812 157.932 226.271V226.59H154.148V225.938H157.165C157.165 225.661 157.11 225.414 156.999 225.197C156.89 224.979 156.735 224.808 156.532 224.682C156.332 224.556 156.095 224.494 155.823 224.494C155.522 224.494 155.262 224.568 155.043 224.717C154.826 224.864 154.658 225.056 154.541 225.293C154.424 225.529 154.365 225.783 154.365 226.053V226.488C154.365 226.859 154.429 227.173 154.557 227.431C154.687 227.686 154.867 227.881 155.097 228.016C155.327 228.148 155.595 228.214 155.899 228.214C156.098 228.214 156.277 228.186 156.436 228.131C156.598 228.073 156.738 227.988 156.855 227.875C156.972 227.76 157.063 227.617 157.127 227.447L157.855 227.651C157.779 227.898 157.65 228.116 157.469 228.303C157.288 228.489 157.064 228.634 156.798 228.738C156.531 228.84 156.232 228.891 155.899 228.891ZM159.182 228.789V222.244H159.936V224.66H160C160.055 224.575 160.132 224.466 160.23 224.334C160.33 224.2 160.473 224.08 160.658 223.976C160.846 223.869 161.099 223.816 161.419 223.816C161.832 223.816 162.197 223.919 162.512 224.126C162.827 224.333 163.073 224.626 163.25 225.005C163.427 225.384 163.516 225.832 163.516 226.347C163.516 226.867 163.427 227.318 163.25 227.699C163.073 228.078 162.828 228.373 162.515 228.581C162.202 228.788 161.841 228.891 161.432 228.891C161.116 228.891 160.864 228.839 160.674 228.735C160.485 228.628 160.339 228.508 160.236 228.374C160.134 228.237 160.055 228.124 160 228.035H159.91V228.789H159.182ZM159.923 226.335C159.923 226.705 159.978 227.032 160.086 227.316C160.195 227.597 160.354 227.817 160.562 227.977C160.771 228.135 161.027 228.214 161.33 228.214C161.645 228.214 161.908 228.131 162.119 227.964C162.332 227.796 162.492 227.57 162.598 227.287C162.707 227.001 162.761 226.684 162.761 226.335C162.761 225.989 162.708 225.678 162.602 225.401C162.497 225.122 162.338 224.902 162.125 224.74C161.914 224.576 161.649 224.494 161.33 224.494C161.023 224.494 160.765 224.571 160.556 224.727C160.347 224.88 160.19 225.096 160.083 225.373C159.977 225.647 159.923 225.968 159.923 226.335Z" fill="#4F4F4F"/>
<path d="M211.008 222.244H211.954L214.179 227.677H214.256L216.48 222.244H217.426V228.789H216.685V223.816H216.621L214.575 228.789H213.859L211.814 223.816H211.75V228.789H211.008V222.244ZM220.358 228.904C220.047 228.904 219.764 228.846 219.511 228.728C219.257 228.609 219.056 228.438 218.907 228.214C218.757 227.988 218.683 227.715 218.683 227.396C218.683 227.114 218.738 226.886 218.849 226.712C218.96 226.535 219.108 226.396 219.293 226.296C219.479 226.196 219.683 226.121 219.907 226.072C220.133 226.021 220.36 225.981 220.588 225.951C220.886 225.913 221.128 225.884 221.313 225.865C221.501 225.843 221.637 225.808 221.722 225.759C221.81 225.71 221.853 225.625 221.853 225.504V225.478C221.853 225.163 221.767 224.918 221.594 224.743C221.424 224.568 221.165 224.481 220.818 224.481C220.458 224.481 220.175 224.56 219.971 224.717C219.766 224.875 219.623 225.043 219.539 225.222L218.824 224.967C218.951 224.668 219.122 224.436 219.335 224.27C219.55 224.102 219.784 223.984 220.038 223.918C220.294 223.85 220.545 223.816 220.792 223.816C220.95 223.816 221.131 223.835 221.336 223.874C221.542 223.91 221.741 223.985 221.933 224.1C222.127 224.216 222.288 224.389 222.416 224.621C222.544 224.854 222.608 225.165 222.608 225.555V228.789H221.853V228.124H221.815C221.764 228.231 221.679 228.345 221.559 228.466C221.44 228.588 221.281 228.691 221.083 228.776C220.885 228.862 220.643 228.904 220.358 228.904ZM220.473 228.227C220.771 228.227 221.022 228.168 221.227 228.051C221.434 227.934 221.589 227.782 221.694 227.597C221.8 227.412 221.853 227.217 221.853 227.012V226.322C221.821 226.36 221.751 226.395 221.642 226.427C221.536 226.457 221.412 226.484 221.272 226.507C221.133 226.528 220.998 226.548 220.866 226.565C220.736 226.58 220.63 226.592 220.549 226.603C220.353 226.629 220.17 226.67 220 226.728C219.831 226.783 219.695 226.867 219.591 226.98C219.488 227.091 219.437 227.242 219.437 227.434C219.437 227.696 219.534 227.894 219.728 228.028C219.924 228.161 220.172 228.227 220.473 228.227ZM223.984 228.789V223.88H224.713V224.621H224.764C224.854 224.379 225.016 224.181 225.25 224.03C225.484 223.879 225.748 223.803 226.043 223.803C226.098 223.803 226.167 223.804 226.25 223.806C226.333 223.809 226.396 223.812 226.439 223.816V224.583C226.413 224.577 226.355 224.567 226.263 224.554C226.174 224.539 226.079 224.532 225.979 224.532C225.74 224.532 225.527 224.582 225.339 224.682C225.154 224.78 225.007 224.917 224.898 225.091C224.792 225.264 224.739 225.461 224.739 225.683V228.789H223.984Z" fill="#4F4F4F"/>
<path d="M273.263 228.789H272.432L274.836 222.244H275.654L278.057 228.789H277.226L275.27 223.279H275.219L273.263 228.789ZM273.57 226.232H276.919V226.935H273.57V226.232ZM278.975 230.63V223.88H279.703V224.66H279.793C279.848 224.575 279.925 224.466 280.023 224.334C280.123 224.2 280.266 224.08 280.451 223.976C280.639 223.869 280.892 223.816 281.212 223.816C281.625 223.816 281.989 223.919 282.305 224.126C282.62 224.333 282.866 224.626 283.043 225.005C283.22 225.384 283.308 225.832 283.308 226.347C283.308 226.867 283.22 227.318 283.043 227.699C282.866 228.078 282.621 228.373 282.308 228.581C281.995 228.788 281.634 228.891 281.225 228.891C280.909 228.891 280.657 228.839 280.467 228.735C280.277 228.628 280.131 228.508 280.029 228.374C279.927 228.237 279.848 228.124 279.793 228.035H279.729V230.63H278.975ZM279.716 226.335C279.716 226.705 279.77 227.032 279.879 227.316C279.988 227.597 280.146 227.817 280.355 227.977C280.564 228.135 280.82 228.214 281.122 228.214C281.438 228.214 281.701 228.131 281.912 227.964C282.125 227.796 282.285 227.57 282.391 227.287C282.5 227.001 282.554 226.684 282.554 226.335C282.554 225.989 282.501 225.678 282.394 225.401C282.29 225.122 282.131 224.902 281.918 224.74C281.707 224.576 281.442 224.494 281.122 224.494C280.815 224.494 280.558 224.571 280.349 224.727C280.14 224.88 279.982 225.096 279.876 225.373C279.769 225.647 279.716 225.968 279.716 226.335ZM284.459 228.789V223.88H285.188V224.621H285.239C285.328 224.379 285.49 224.181 285.725 224.03C285.959 223.879 286.223 223.803 286.517 223.803C286.573 223.803 286.642 223.804 286.725 223.806C286.808 223.809 286.871 223.812 286.913 223.816V224.583C286.888 224.577 286.829 224.567 286.738 224.554C286.648 224.539 286.553 224.532 286.453 224.532C286.215 224.532 286.002 224.582 285.814 224.682C285.629 224.78 285.482 224.917 285.373 225.091C285.266 225.264 285.213 225.461 285.213 225.683V228.789H284.459Z" fill="#4F4F4F"/>
<path d="M334.982 222.244H335.928L338.153 227.677H338.229L340.454 222.244H341.4V228.789H340.658V223.816H340.594L338.549 228.789H337.833L335.787 223.816H335.724V228.789H334.982V222.244ZM344.331 228.904C344.02 228.904 343.738 228.846 343.484 228.728C343.231 228.609 343.029 228.438 342.88 228.214C342.731 227.988 342.657 227.715 342.657 227.396C342.657 227.114 342.712 226.886 342.823 226.712C342.934 226.535 343.082 226.396 343.267 226.296C343.452 226.196 343.657 226.121 343.881 226.072C344.106 226.021 344.333 225.981 344.561 225.951C344.86 225.913 345.101 225.884 345.287 225.865C345.474 225.843 345.611 225.808 345.696 225.759C345.783 225.71 345.827 225.625 345.827 225.504V225.478C345.827 225.163 345.741 224.918 345.568 224.743C345.398 224.568 345.139 224.481 344.791 224.481C344.431 224.481 344.149 224.56 343.945 224.717C343.74 224.875 343.596 225.043 343.513 225.222L342.797 224.967C342.925 224.668 343.095 224.436 343.309 224.27C343.524 224.102 343.758 223.984 344.012 223.918C344.267 223.85 344.519 223.816 344.766 223.816C344.924 223.816 345.105 223.835 345.309 223.874C345.516 223.91 345.715 223.985 345.907 224.1C346.101 224.216 346.262 224.389 346.389 224.621C346.517 224.854 346.581 225.165 346.581 225.555V228.789H345.827V228.124H345.789C345.737 228.231 345.652 228.345 345.533 228.466C345.414 228.588 345.255 228.691 345.057 228.776C344.859 228.862 344.617 228.904 344.331 228.904ZM344.446 228.227C344.745 228.227 344.996 228.168 345.201 228.051C345.407 227.934 345.563 227.782 345.667 227.597C345.774 227.412 345.827 227.217 345.827 227.012V226.322C345.795 226.36 345.725 226.395 345.616 226.427C345.509 226.457 345.386 226.484 345.245 226.507C345.107 226.528 344.972 226.548 344.839 226.565C344.709 226.58 344.604 226.592 344.523 226.603C344.327 226.629 344.144 226.67 343.973 226.728C343.805 226.783 343.669 226.867 343.564 226.98C343.462 227.091 343.411 227.242 343.411 227.434C343.411 227.696 343.508 227.894 343.702 228.028C343.898 228.161 344.146 228.227 344.446 228.227ZM347.958 228.789V223.88H348.712V228.789H347.958ZM348.341 223.062C348.194 223.062 348.068 223.012 347.961 222.912C347.857 222.811 347.805 222.691 347.805 222.55C347.805 222.41 347.857 222.289 347.961 222.189C348.068 222.089 348.194 222.039 348.341 222.039C348.488 222.039 348.614 222.089 348.719 222.189C348.825 222.289 348.878 222.41 348.878 222.55C348.878 222.691 348.825 222.811 348.719 222.912C348.614 223.012 348.488 223.062 348.341 223.062Z" fill="#4F4F4F"/>
<path d="M399.474 222.244H400.267V226.923C400.267 227.34 400.19 227.695 400.037 227.987C399.883 228.279 399.667 228.5 399.388 228.652C399.109 228.803 398.779 228.879 398.4 228.879C398.042 228.879 397.724 228.814 397.445 228.684C397.165 228.551 396.946 228.364 396.786 228.121C396.626 227.878 396.547 227.589 396.547 227.255H397.326C397.326 227.44 397.372 227.602 397.464 227.741C397.558 227.877 397.685 227.984 397.847 228.06C398.009 228.137 398.194 228.175 398.4 228.175C398.628 228.175 398.822 228.127 398.982 228.032C399.142 227.936 399.263 227.795 399.346 227.61C399.431 227.422 399.474 227.193 399.474 226.923V222.244ZM404.847 226.782V223.88H405.601V228.789H404.847V227.958H404.795C404.68 228.207 404.501 228.419 404.259 228.594C404.016 228.767 403.709 228.853 403.338 228.853C403.031 228.853 402.759 228.786 402.52 228.652C402.281 228.515 402.094 228.311 401.957 228.038C401.821 227.763 401.753 227.417 401.753 226.999V223.88H402.507V226.948C402.507 227.306 402.607 227.592 402.808 227.805C403.01 228.018 403.268 228.124 403.581 228.124C403.768 228.124 403.959 228.076 404.153 227.98C404.349 227.885 404.513 227.738 404.645 227.539C404.779 227.341 404.847 227.089 404.847 226.782ZM407.737 225.836V228.789H406.982V223.88H407.711V224.647H407.775C407.89 224.398 408.065 224.197 408.299 224.046C408.533 223.893 408.836 223.816 409.207 223.816C409.539 223.816 409.83 223.884 410.079 224.021C410.329 224.155 410.522 224.359 410.661 224.634C410.799 224.907 410.869 225.252 410.869 225.67V228.789H410.114V225.721C410.114 225.335 410.014 225.035 409.814 224.82C409.614 224.602 409.339 224.494 408.989 224.494C408.749 224.494 408.533 224.546 408.344 224.65C408.156 224.755 408.008 224.907 407.9 225.107C407.791 225.308 407.737 225.55 407.737 225.836Z" fill="#4F4F4F"/>
<path d="M461.461 222.244H462.254V226.923C462.254 227.34 462.177 227.695 462.023 227.987C461.87 228.279 461.654 228.5 461.375 228.652C461.095 228.803 460.766 228.879 460.387 228.879C460.029 228.879 459.711 228.814 459.431 228.684C459.152 228.551 458.933 228.364 458.773 228.121C458.613 227.878 458.533 227.589 458.533 227.255H459.313C459.313 227.44 459.359 227.602 459.451 227.741C459.544 227.877 459.672 227.984 459.834 228.06C459.996 228.137 460.18 228.175 460.387 228.175C460.615 228.175 460.809 228.127 460.969 228.032C461.129 227.936 461.25 227.795 461.333 227.61C461.418 227.422 461.461 227.193 461.461 226.923V222.244ZM466.833 226.782V223.88H467.588V228.789H466.833V227.958H466.782C466.667 228.207 466.488 228.419 466.245 228.594C466.002 228.767 465.696 228.853 465.325 228.853C465.018 228.853 464.745 228.786 464.507 228.652C464.268 228.515 464.081 228.311 463.944 228.038C463.808 227.763 463.74 227.417 463.74 226.999V223.88H464.494V226.948C464.494 227.306 464.594 227.592 464.794 227.805C464.997 228.018 465.255 228.124 465.568 228.124C465.755 228.124 465.946 228.076 466.14 227.98C466.336 227.885 466.5 227.738 466.632 227.539C466.766 227.341 466.833 227.089 466.833 226.782ZM469.723 222.244V228.789H468.969V222.244H469.723Z" fill="#4F4F4F"/>
<path d="M521.21 228.789H520.379L522.782 222.244H523.601L526.004 228.789H525.173L523.217 223.279H523.166L521.21 228.789ZM521.517 226.232H524.866V226.935H521.517V226.232ZM530.015 226.782V223.88H530.769V228.789H530.015V227.958H529.964C529.849 228.207 529.67 228.419 529.427 228.594C529.184 228.767 528.877 228.853 528.507 228.853C528.2 228.853 527.927 228.786 527.688 228.652C527.45 228.515 527.262 228.311 527.126 228.038C526.989 227.763 526.921 227.417 526.921 226.999V223.88H527.676V226.948C527.676 227.306 527.776 227.592 527.976 227.805C528.178 228.018 528.436 228.124 528.749 228.124C528.937 228.124 529.128 228.076 529.322 227.98C529.518 227.885 529.682 227.738 529.814 227.539C529.948 227.341 530.015 227.089 530.015 226.782ZM534.132 230.732C533.768 230.732 533.455 230.685 533.193 230.592C532.931 230.5 532.712 230.379 532.538 230.227C532.365 230.078 532.227 229.918 532.125 229.748L532.726 229.326C532.794 229.415 532.881 229.518 532.985 229.633C533.089 229.75 533.232 229.851 533.413 229.936C533.596 230.024 533.836 230.067 534.132 230.067C534.529 230.067 534.856 229.972 535.114 229.78C535.371 229.588 535.5 229.288 535.5 228.879V227.881H535.436C535.381 227.971 535.302 228.082 535.2 228.214C535.1 228.344 534.955 228.46 534.765 228.562C534.578 228.662 534.324 228.712 534.004 228.712C533.608 228.712 533.252 228.619 532.937 228.431C532.624 228.244 532.376 227.971 532.192 227.613C532.011 227.255 531.921 226.82 531.921 226.309C531.921 225.806 532.009 225.368 532.186 224.995C532.363 224.62 532.609 224.331 532.924 224.126C533.24 223.919 533.604 223.816 534.017 223.816C534.337 223.816 534.59 223.869 534.778 223.976C534.968 224.08 535.112 224.2 535.213 224.334C535.315 224.466 535.394 224.575 535.449 224.66H535.526V223.88H536.254V228.93C536.254 229.352 536.159 229.695 535.967 229.959C535.777 230.225 535.522 230.42 535.2 230.544C534.88 230.669 534.524 230.732 534.132 230.732ZM534.107 228.035C534.409 228.035 534.665 227.966 534.874 227.827C535.083 227.689 535.241 227.489 535.35 227.229C535.459 226.969 535.513 226.658 535.513 226.296C535.513 225.942 535.46 225.63 535.353 225.36C535.247 225.089 535.089 224.877 534.88 224.724C534.671 224.57 534.414 224.494 534.107 224.494C533.787 224.494 533.521 224.575 533.308 224.737C533.097 224.898 532.938 225.116 532.832 225.388C532.727 225.661 532.675 225.964 532.675 226.296C532.675 226.637 532.728 226.939 532.835 227.201C532.943 227.461 533.103 227.665 533.314 227.814C533.527 227.961 533.791 228.035 534.107 228.035Z" fill="#4F4F4F"/>
<path d="M586.508 223.88C586.47 223.556 586.314 223.305 586.041 223.126C585.769 222.947 585.434 222.857 585.038 222.857C584.748 222.857 584.494 222.904 584.277 222.998C584.062 223.092 583.894 223.221 583.772 223.385C583.653 223.549 583.593 223.735 583.593 223.944C583.593 224.119 583.635 224.269 583.718 224.395C583.803 224.518 583.912 224.621 584.044 224.705C584.176 224.786 584.314 224.853 584.459 224.906C584.604 224.957 584.737 224.999 584.859 225.031L585.524 225.21C585.694 225.254 585.884 225.316 586.092 225.395C586.303 225.474 586.505 225.581 586.696 225.718C586.89 225.852 587.05 226.025 587.176 226.235C587.302 226.446 587.364 226.705 587.364 227.012C587.364 227.366 587.272 227.685 587.086 227.971C586.903 228.256 586.635 228.483 586.281 228.652C585.929 228.82 585.502 228.904 584.999 228.904C584.531 228.904 584.125 228.828 583.782 228.677C583.441 228.526 583.172 228.315 582.976 228.044C582.782 227.774 582.673 227.46 582.647 227.102H583.465C583.487 227.349 583.57 227.553 583.715 227.715C583.862 227.875 584.047 227.994 584.271 228.073C584.497 228.15 584.739 228.188 584.999 228.188C585.302 228.188 585.574 228.139 585.814 228.041C586.055 227.941 586.246 227.803 586.386 227.626C586.527 227.447 586.597 227.238 586.597 226.999C586.597 226.782 586.537 226.605 586.415 226.469C586.294 226.332 586.134 226.222 585.936 226.136C585.738 226.051 585.524 225.977 585.293 225.913L584.488 225.683C583.977 225.536 583.572 225.326 583.274 225.053C582.975 224.78 582.826 224.423 582.826 223.982C582.826 223.616 582.925 223.296 583.123 223.023C583.324 222.749 583.592 222.536 583.929 222.384C584.267 222.231 584.646 222.154 585.063 222.154C585.485 222.154 585.86 222.23 586.188 222.381C586.516 222.53 586.776 222.735 586.968 222.995C587.162 223.255 587.264 223.55 587.275 223.88H586.508ZM590.624 228.891C590.151 228.891 589.743 228.787 589.4 228.578C589.059 228.367 588.795 228.073 588.61 227.696C588.427 227.317 588.335 226.876 588.335 226.373C588.335 225.87 588.427 225.427 588.61 225.043C588.795 224.658 589.053 224.357 589.384 224.142C589.716 223.925 590.104 223.816 590.547 223.816C590.803 223.816 591.055 223.859 591.304 223.944C591.554 224.029 591.781 224.168 591.985 224.359C592.19 224.549 592.353 224.8 592.474 225.114C592.596 225.427 592.656 225.812 592.656 226.271V226.59H588.872V225.938H591.889C591.889 225.661 591.834 225.414 591.723 225.197C591.614 224.979 591.459 224.808 591.256 224.682C591.056 224.556 590.82 224.494 590.547 224.494C590.246 224.494 589.987 224.568 589.767 224.717C589.55 224.864 589.382 225.056 589.265 225.293C589.148 225.529 589.089 225.783 589.089 226.053V226.488C589.089 226.859 589.153 227.173 589.281 227.431C589.411 227.686 589.591 227.881 589.821 228.016C590.051 228.148 590.319 228.214 590.624 228.214C590.822 228.214 591.001 228.186 591.161 228.131C591.322 228.073 591.462 227.988 591.579 227.875C591.696 227.76 591.787 227.617 591.851 227.447L592.58 227.651C592.503 227.898 592.374 228.116 592.193 228.303C592.012 228.489 591.788 228.634 591.522 228.738C591.255 228.84 590.956 228.891 590.624 228.891ZM593.804 230.63V223.88H594.532V224.66H594.622C594.677 224.575 594.754 224.466 594.852 224.334C594.952 224.2 595.095 224.08 595.28 223.976C595.468 223.869 595.721 223.816 596.041 223.816C596.454 223.816 596.819 223.919 597.134 224.126C597.449 224.333 597.695 224.626 597.872 225.005C598.049 225.384 598.137 225.832 598.137 226.347C598.137 226.867 598.049 227.318 597.872 227.699C597.695 228.078 597.45 228.373 597.137 228.581C596.824 228.788 596.463 228.891 596.054 228.891C595.738 228.891 595.486 228.839 595.296 228.735C595.107 228.628 594.961 228.508 594.858 228.374C594.756 228.237 594.677 228.124 594.622 228.035H594.558V230.63H593.804ZM594.545 226.335C594.545 226.705 594.599 227.032 594.708 227.316C594.817 227.597 594.975 227.817 595.184 227.977C595.393 228.135 595.649 228.214 595.951 228.214C596.267 228.214 596.53 228.131 596.741 227.964C596.954 227.796 597.114 227.57 597.22 227.287C597.329 227.001 597.383 226.684 597.383 226.335C597.383 225.989 597.33 225.678 597.223 225.401C597.119 225.122 596.96 224.902 596.747 224.74C596.536 224.576 596.271 224.494 595.951 224.494C595.645 224.494 595.387 224.571 595.178 224.727C594.969 224.88 594.811 225.096 594.705 225.373C594.598 225.647 594.545 225.968 594.545 226.335Z" fill="#4F4F4F"/>
<path d="M650.438 225.516C650.438 226.207 650.313 226.803 650.064 227.306C649.815 227.809 649.473 228.197 649.038 228.469C648.603 228.742 648.107 228.879 647.549 228.879C646.99 228.879 646.494 228.742 646.059 228.469C645.625 228.197 645.283 227.809 645.033 227.306C644.784 226.803 644.659 226.207 644.659 225.516C644.659 224.826 644.784 224.229 645.033 223.727C645.283 223.224 645.625 222.836 646.059 222.563C646.494 222.29 646.99 222.154 647.549 222.154C648.107 222.154 648.603 222.29 649.038 222.563C649.473 222.836 649.815 223.224 650.064 223.727C650.313 224.229 650.438 224.826 650.438 225.516ZM649.671 225.516C649.671 224.95 649.576 224.471 649.386 224.081C649.199 223.691 648.944 223.396 648.623 223.196C648.303 222.996 647.945 222.896 647.549 222.896C647.152 222.896 646.793 222.996 646.472 223.196C646.152 223.396 645.897 223.691 645.708 224.081C645.52 224.471 645.427 224.95 645.427 225.516C645.427 226.083 645.52 226.561 645.708 226.951C645.897 227.341 646.152 227.636 646.472 227.837C646.793 228.037 647.152 228.137 647.549 228.137C647.945 228.137 648.303 228.037 648.623 227.837C648.944 227.636 649.199 227.341 649.386 226.951C649.576 226.561 649.671 226.083 649.671 225.516ZM653.663 228.891C653.202 228.891 652.806 228.783 652.474 228.565C652.141 228.348 651.886 228.049 651.707 227.667C651.528 227.286 651.438 226.85 651.438 226.36C651.438 225.862 651.53 225.422 651.713 225.04C651.898 224.657 652.156 224.357 652.487 224.142C652.819 223.925 653.207 223.816 653.65 223.816C653.995 223.816 654.306 223.88 654.583 224.008C654.86 224.136 655.087 224.315 655.264 224.545C655.441 224.775 655.55 225.043 655.593 225.35H654.839C654.781 225.126 654.653 224.928 654.455 224.756C654.259 224.581 653.995 224.494 653.663 224.494C653.369 224.494 653.111 224.57 652.889 224.724C652.67 224.875 652.498 225.089 652.375 225.366C652.253 225.641 652.193 225.964 652.193 226.335C652.193 226.714 652.252 227.044 652.371 227.325C652.493 227.607 652.663 227.825 652.883 227.98C653.104 228.136 653.364 228.214 653.663 228.214C653.859 228.214 654.037 228.18 654.196 228.112C654.356 228.043 654.492 227.945 654.602 227.817C654.713 227.69 654.792 227.536 654.839 227.357H655.593C655.55 227.647 655.445 227.908 655.277 228.14C655.11 228.37 654.89 228.554 654.615 228.69C654.342 228.824 654.025 228.891 653.663 228.891ZM658.831 223.88V224.519H656.287V223.88H658.831ZM657.028 222.704H657.782V227.383C657.782 227.596 657.813 227.756 657.875 227.862C657.939 227.967 658.02 228.037 658.118 228.073C658.218 228.107 658.324 228.124 658.434 228.124C658.517 228.124 658.586 228.12 658.639 228.112C658.692 228.101 658.735 228.092 658.767 228.086L658.92 228.763C658.869 228.783 658.798 228.802 658.706 228.821C658.614 228.842 658.498 228.853 658.358 228.853C658.145 228.853 657.936 228.807 657.731 228.716C657.529 228.624 657.36 228.484 657.226 228.297C657.094 228.109 657.028 227.873 657.028 227.587V222.704Z" fill="#4F4F4F"/>
<path d="M712.092 222.244V228.789H711.325L707.758 223.65H707.694V228.789H706.902V222.244H707.669L711.248 227.396H711.312V222.244H712.092ZM715.57 228.891C715.127 228.891 714.738 228.786 714.403 228.575C714.071 228.364 713.811 228.069 713.624 227.69C713.438 227.31 713.345 226.867 713.345 226.36C713.345 225.849 713.438 225.402 713.624 225.021C713.811 224.64 714.071 224.343 714.403 224.132C714.738 223.922 715.127 223.816 715.57 223.816C716.013 223.816 716.401 223.922 716.733 224.132C717.068 224.343 717.328 224.64 717.513 225.021C717.701 225.402 717.794 225.849 717.794 226.36C717.794 226.867 717.701 227.31 717.513 227.69C717.328 228.069 717.068 228.364 716.733 228.575C716.401 228.786 716.013 228.891 715.57 228.891ZM715.57 228.214C715.907 228.214 716.184 228.127 716.401 227.955C716.618 227.782 716.779 227.555 716.883 227.274C716.988 226.993 717.04 226.688 717.04 226.36C717.04 226.032 716.988 225.726 716.883 225.443C716.779 225.159 716.618 224.93 716.401 224.756C716.184 224.581 715.907 224.494 715.57 224.494C715.233 224.494 714.956 224.581 714.739 224.756C714.522 224.93 714.361 225.159 714.256 225.443C714.152 225.726 714.1 226.032 714.1 226.36C714.1 226.688 714.152 226.993 714.256 227.274C714.361 227.555 714.522 227.782 714.739 227.955C714.956 228.127 715.233 228.214 715.57 228.214ZM722.784 223.88L720.969 228.789H720.202L718.386 223.88H719.205L720.56 227.792H720.611L721.966 223.88H722.784Z" fill="#4F4F4F"/>
<path d="M770.908 228.789H768.888V222.244H770.998C771.633 222.244 772.176 222.375 772.628 222.637C773.079 222.897 773.426 223.271 773.666 223.759C773.907 224.244 774.028 224.826 774.028 225.504C774.028 226.185 773.906 226.772 773.663 227.265C773.42 227.755 773.067 228.132 772.602 228.396C772.138 228.658 771.573 228.789 770.908 228.789ZM769.681 228.086H770.857C771.398 228.086 771.847 227.982 772.203 227.773C772.558 227.564 772.824 227.267 772.998 226.881C773.173 226.495 773.26 226.036 773.26 225.504C773.26 224.975 773.174 224.52 773.002 224.139C772.829 223.755 772.571 223.461 772.228 223.257C771.885 223.05 771.458 222.947 770.947 222.947H769.681V228.086ZM777.313 228.891C776.84 228.891 776.432 228.787 776.089 228.578C775.748 228.367 775.485 228.073 775.3 227.696C775.116 227.317 775.025 226.876 775.025 226.373C775.025 225.87 775.116 225.427 775.3 225.043C775.485 224.658 775.743 224.357 776.073 224.142C776.405 223.925 776.793 223.816 777.236 223.816C777.492 223.816 777.744 223.859 777.994 223.944C778.243 224.029 778.47 224.168 778.675 224.359C778.879 224.549 779.042 224.8 779.164 225.114C779.285 225.427 779.346 225.812 779.346 226.271V226.59H775.562V225.938H778.579C778.579 225.661 778.523 225.414 778.412 225.197C778.304 224.979 778.148 224.808 777.946 224.682C777.746 224.556 777.509 224.494 777.236 224.494C776.936 224.494 776.676 224.568 776.456 224.717C776.239 224.864 776.072 225.056 775.955 225.293C775.838 225.529 775.779 225.783 775.779 226.053V226.488C775.779 226.859 775.843 227.173 775.971 227.431C776.101 227.686 776.281 227.881 776.511 228.016C776.741 228.148 777.008 228.214 777.313 228.214C777.511 228.214 777.69 228.186 777.85 228.131C778.012 228.073 778.151 227.988 778.269 227.875C778.386 227.76 778.476 227.617 778.54 227.447L779.269 227.651C779.192 227.898 779.063 228.116 778.882 228.303C778.701 228.489 778.477 228.634 778.211 228.738C777.945 228.84 777.645 228.891 777.313 228.891ZM782.487 228.891C782.027 228.891 781.631 228.783 781.298 228.565C780.966 228.348 780.71 228.049 780.531 227.667C780.352 227.286 780.263 226.85 780.263 226.36C780.263 225.862 780.355 225.422 780.538 225.04C780.723 224.657 780.981 224.357 781.311 224.142C781.644 223.925 782.031 223.816 782.475 223.816C782.82 223.816 783.131 223.88 783.408 224.008C783.685 224.136 783.912 224.315 784.089 224.545C784.265 224.775 784.375 225.043 784.418 225.35H783.664C783.606 225.126 783.478 224.928 783.28 224.756C783.084 224.581 782.82 224.494 782.487 224.494C782.193 224.494 781.936 224.57 781.714 224.724C781.494 224.875 781.323 225.089 781.199 225.366C781.078 225.641 781.017 225.964 781.017 226.335C781.017 226.714 781.077 227.044 781.196 227.325C781.318 227.607 781.488 227.825 781.708 227.98C781.929 228.136 782.189 228.214 782.487 228.214C782.683 228.214 782.861 228.18 783.021 228.112C783.181 228.043 783.316 227.945 783.427 227.817C783.538 227.69 783.617 227.536 783.664 227.357H784.418C784.375 227.647 784.27 227.908 784.101 228.14C783.935 228.37 783.715 228.554 783.44 228.69C783.167 228.824 782.85 228.891 782.487 228.891Z" fill="#4F4F4F"/>
<path d="M69.9545 211.784C69.4729 211.784 69.0628 211.653 68.724 211.391C68.3852 211.127 68.1264 210.744 67.9474 210.243C67.7684 209.741 67.6789 209.133 67.6789 208.422C67.6789 207.714 67.7684 207.11 67.9474 206.609C68.1285 206.107 68.3884 205.723 68.7272 205.459C69.0681 205.193 69.4772 205.059 69.9545 205.059C70.4318 205.059 70.8398 205.193 71.1786 205.459C71.5195 205.723 71.7794 206.107 71.9584 206.609C72.1395 207.11 72.2301 207.714 72.2301 208.422C72.2301 209.133 72.1406 209.741 71.9616 210.243C71.7826 210.744 71.5237 211.127 71.185 211.391C70.8462 211.653 70.436 211.784 69.9545 211.784ZM69.9545 211.081C70.4318 211.081 70.8025 210.851 71.0667 210.39C71.3309 209.93 71.463 209.274 71.463 208.422C71.463 207.855 71.4023 207.372 71.2808 206.974C71.1615 206.575 70.9889 206.272 70.7631 206.063C70.5394 205.854 70.2698 205.75 69.9545 205.75C69.4815 205.75 69.1118 205.983 68.8455 206.45C68.5791 206.914 68.446 207.571 68.446 208.422C68.446 208.988 68.5056 209.47 68.6249 209.866C68.7443 210.263 68.9158 210.564 69.1395 210.771C69.3653 210.977 69.637 211.081 69.9545 211.081Z" fill="#4F4F4F"/>
<path d="M58.5455 180.728V187.273H57.7529V181.559H57.7145L56.1165 182.62V181.815L57.7529 180.728H58.5455ZM60.6037 187.325C60.446 187.325 60.3108 187.268 60.1978 187.155C60.0849 187.042 60.0284 186.907 60.0284 186.749C60.0284 186.592 60.0849 186.456 60.1978 186.343C60.3108 186.23 60.446 186.174 60.6037 186.174C60.7614 186.174 60.8967 186.23 61.0096 186.343C61.1225 186.456 61.179 186.592 61.179 186.749C61.179 186.854 61.1524 186.95 61.0991 187.037C61.048 187.124 60.9787 187.195 60.8914 187.248C60.8061 187.299 60.7103 187.325 60.6037 187.325ZM62.5197 187.273V186.698L64.6802 184.333C64.9338 184.056 65.1426 183.815 65.3067 183.611C65.4707 183.404 65.5922 183.21 65.671 183.029C65.752 182.846 65.7925 182.654 65.7925 182.454C65.7925 182.224 65.7371 182.025 65.6263 181.856C65.5176 181.688 65.3685 181.558 65.1788 181.466C64.9892 181.375 64.7761 181.329 64.5396 181.329C64.2882 181.329 64.0687 181.381 63.8812 181.485C63.6959 181.588 63.5521 181.732 63.4498 181.917C63.3496 182.102 63.2996 182.32 63.2996 182.569H62.5453C62.5453 182.185 62.6337 181.849 62.8106 181.559C62.9874 181.269 63.2282 181.043 63.5329 180.881C63.8397 180.719 64.1838 180.638 64.5652 180.638C64.9487 180.638 65.2886 180.719 65.5847 180.881C65.8809 181.043 66.1131 181.262 66.2815 181.537C66.4498 181.811 66.5339 182.117 66.5339 182.454C66.5339 182.695 66.4903 182.93 66.4029 183.16C66.3177 183.388 66.1685 183.643 65.9555 183.924C65.7445 184.203 65.4516 184.544 65.0766 184.947L63.6064 186.519V186.57H66.649V187.273H62.5197ZM70.0144 187.363C69.6394 187.363 69.3017 187.288 69.0013 187.139C68.7008 186.99 68.4601 186.786 68.279 186.526C68.0979 186.266 67.9988 185.969 67.9817 185.637H68.7488C68.7786 185.933 68.9128 186.178 69.1515 186.372C69.3922 186.564 69.6799 186.66 70.0144 186.66C70.2829 186.66 70.5215 186.597 70.7303 186.471C70.9413 186.346 71.1064 186.173 71.2257 185.953C71.3472 185.732 71.4079 185.482 71.4079 185.202C71.4079 184.917 71.345 184.662 71.2193 184.439C71.0957 184.213 70.9253 184.035 70.7079 183.905C70.4906 183.775 70.2424 183.709 69.9633 183.707C69.763 183.705 69.5574 183.735 69.3464 183.799C69.1355 183.861 68.9619 183.941 68.8255 184.039L68.084 183.95L68.4803 180.728H71.8809V181.431H69.1451L68.915 183.362H68.9533C69.0876 183.255 69.2559 183.167 69.4583 183.096C69.6607 183.026 69.8717 182.991 70.0911 182.991C70.4917 182.991 70.8486 183.087 71.1618 183.278C71.4771 183.468 71.7243 183.728 71.9033 184.058C72.0844 184.388 72.1749 184.766 72.1749 185.19C72.1749 185.607 72.0812 185.98 71.8937 186.308C71.7083 186.634 71.4526 186.892 71.1266 187.082C70.8006 187.269 70.4299 187.363 70.0144 187.363Z" fill="#4F4F4F"/>
<path d="M60.1731 161.632V161.057L62.3336 158.691C62.5871 158.415 62.7959 158.174 62.96 157.969C63.124 157.763 63.2455 157.569 63.3243 157.388C63.4053 157.204 63.4458 157.013 63.4458 156.812C63.4458 156.582 63.3904 156.383 63.2796 156.215C63.1709 156.046 63.0218 155.916 62.8321 155.825C62.6425 155.733 62.4294 155.687 62.1929 155.687C61.9415 155.687 61.7221 155.739 61.5346 155.844C61.3492 155.946 61.2054 156.09 61.1031 156.275C61.003 156.461 60.9529 156.678 60.9529 156.927H60.1986C60.1986 156.544 60.287 156.207 60.4639 155.917C60.6407 155.628 60.8815 155.402 61.1862 155.24C61.493 155.078 61.8371 154.997 62.2185 154.997C62.602 154.997 62.9419 155.078 63.238 155.24C63.5342 155.402 63.7665 155.62 63.9348 155.895C64.1031 156.17 64.1873 156.476 64.1873 156.812C64.1873 157.053 64.1436 157.288 64.0562 157.519C63.971 157.747 63.8218 158.001 63.6088 158.282C63.3978 158.562 63.1049 158.902 62.7299 159.305L61.2597 160.878V160.929H64.3023V161.632H60.1731ZM66.1848 161.683C66.0271 161.683 65.8918 161.627 65.7789 161.514C65.666 161.401 65.6095 161.265 65.6095 161.108C65.6095 160.95 65.666 160.815 65.7789 160.702C65.8918 160.589 66.0271 160.532 66.1848 160.532C66.3424 160.532 66.4777 160.589 66.5907 160.702C66.7036 160.815 66.7601 160.95 66.7601 161.108C66.7601 161.212 66.7334 161.308 66.6802 161.395C66.629 161.483 66.5598 161.553 66.4724 161.606C66.3872 161.657 66.2913 161.683 66.1848 161.683ZM70.0144 161.721C69.6394 161.721 69.3017 161.647 69.0013 161.498C68.7008 161.348 68.4601 161.144 68.279 160.884C68.0979 160.624 67.9988 160.328 67.9817 159.995H68.7488C68.7786 160.292 68.9128 160.537 69.1515 160.731C69.3922 160.922 69.6799 161.018 70.0144 161.018C70.2829 161.018 70.5215 160.955 70.7303 160.83C70.9413 160.704 71.1064 160.531 71.2257 160.312C71.3472 160.09 71.4079 159.84 71.4079 159.561C71.4079 159.275 71.345 159.021 71.2193 158.797C71.0957 158.571 70.9253 158.393 70.7079 158.263C70.4906 158.133 70.2424 158.067 69.9633 158.065C69.763 158.063 69.5574 158.094 69.3464 158.158C69.1355 158.22 68.9619 158.299 68.8255 158.397L68.084 158.308L68.4803 155.086H71.8809V155.79H69.1451L68.915 157.72H68.9533C69.0876 157.613 69.2559 157.525 69.4583 157.455C69.6607 157.384 69.8717 157.349 70.0911 157.349C70.4917 157.349 70.8486 157.445 71.1618 157.637C71.4771 157.826 71.7243 158.086 71.9033 158.417C72.0844 158.747 72.1749 159.124 72.1749 159.548C72.1749 159.966 72.0812 160.339 71.8937 160.667C71.7083 160.993 71.4526 161.25 71.1266 161.44C70.8006 161.628 70.4299 161.721 70.0144 161.721Z" fill="#4F4F4F"/>
<path d="M57.2519 136.079C56.83 136.079 56.454 136.006 56.1237 135.861C55.7956 135.717 55.5346 135.515 55.3407 135.257C55.1489 134.997 55.0445 134.696 55.0275 134.353H55.8329C55.8499 134.564 55.9223 134.746 56.0502 134.899C56.178 135.051 56.3453 135.168 56.552 135.251C56.7586 135.334 56.9877 135.376 57.2391 135.376C57.5204 135.376 57.7696 135.327 57.987 135.229C58.2043 135.131 58.3748 134.994 58.4983 134.82C58.6219 134.645 58.6837 134.442 58.6837 134.212C58.6837 133.972 58.624 133.759 58.5047 133.576C58.3854 133.391 58.2107 133.246 57.9806 133.142C57.7505 133.037 57.4692 132.985 57.1368 132.985H56.6127V132.282H57.1368C57.3968 132.282 57.6248 132.235 57.8208 132.141C58.0189 132.047 58.1734 131.915 58.2842 131.745C58.3971 131.574 58.4536 131.374 58.4536 131.144C58.4536 130.922 58.4046 130.73 58.3066 130.566C58.2086 130.402 58.0701 130.274 57.8911 130.182C57.7142 130.09 57.5054 130.045 57.2647 130.045C57.0388 130.045 56.8258 130.086 56.6255 130.169C56.4273 130.25 56.2654 130.369 56.1397 130.524C56.014 130.677 55.9458 130.863 55.9351 131.08H55.1681C55.1809 130.737 55.2842 130.437 55.4781 130.179C55.672 129.919 55.9255 129.717 56.2388 129.572C56.5541 129.427 56.9003 129.354 57.2775 129.354C57.6823 129.354 58.0296 129.436 58.3194 129.6C58.6091 129.762 58.8318 129.976 58.9873 130.243C59.1429 130.509 59.2206 130.797 59.2206 131.106C59.2206 131.474 59.1237 131.789 58.9298 132.049C58.738 132.309 58.477 132.489 58.1468 132.589V132.64C58.5601 132.708 58.8829 132.884 59.1152 133.167C59.3474 133.448 59.4635 133.797 59.4635 134.212C59.4635 134.568 59.3666 134.888 59.1727 135.171C58.9809 135.452 58.7189 135.674 58.3865 135.836C58.0541 135.998 57.6759 136.079 57.2519 136.079ZM61.1311 136.04C60.9734 136.04 60.8381 135.984 60.7252 135.871C60.6122 135.758 60.5558 135.623 60.5558 135.465C60.5558 135.307 60.6122 135.172 60.7252 135.059C60.8381 134.946 60.9734 134.89 61.1311 134.89C61.2887 134.89 61.424 134.946 61.537 135.059C61.6499 135.172 61.7063 135.307 61.7063 135.465C61.7063 135.57 61.6797 135.665 61.6264 135.753C61.5753 135.84 61.5061 135.91 61.4187 135.964C61.3335 136.015 61.2376 136.04 61.1311 136.04ZM63.1198 135.989L66.0473 130.198V130.147H62.6723V129.444H66.8655V130.185L63.9508 135.989H63.1198ZM70.0144 136.079C69.6394 136.079 69.3017 136.004 69.0013 135.855C68.7008 135.706 68.4601 135.501 68.279 135.241C68.0979 134.981 67.9988 134.685 67.9817 134.353H68.7488C68.7786 134.649 68.9128 134.894 69.1515 135.088C69.3922 135.28 69.6799 135.376 70.0144 135.376C70.2829 135.376 70.5215 135.313 70.7303 135.187C70.9413 135.061 71.1064 134.889 71.2257 134.669C71.3472 134.448 71.4079 134.197 71.4079 133.918C71.4079 133.633 71.345 133.378 71.2193 133.154C71.0957 132.929 70.9253 132.751 70.7079 132.621C70.4906 132.491 70.2424 132.425 69.9633 132.422C69.763 132.42 69.5574 132.451 69.3464 132.515C69.1355 132.577 68.9619 132.657 68.8255 132.755L68.084 132.665L68.4803 129.444H71.8809V130.147H69.1451L68.915 132.077H68.9533C69.0876 131.971 69.2559 131.882 69.4583 131.812C69.6607 131.742 69.8717 131.707 70.0911 131.707C70.4917 131.707 70.8486 131.802 71.1618 131.994C71.4771 132.184 71.7243 132.444 71.9033 132.774C72.0844 133.104 72.1749 133.481 72.1749 133.905C72.1749 134.323 72.0812 134.696 71.8937 135.024C71.7083 135.35 71.4526 135.608 71.1266 135.797C70.8006 135.985 70.4299 136.079 70.0144 136.079Z" fill="#4F4F4F"/>
<path d="M70.0144 110.437C69.6394 110.437 69.3017 110.363 69.0013 110.213C68.7008 110.064 68.4601 109.86 68.279 109.6C68.0979 109.34 67.9988 109.044 67.9817 108.711H68.7488C68.7786 109.007 68.9128 109.252 69.1515 109.446C69.3922 109.638 69.6799 109.734 70.0144 109.734C70.2829 109.734 70.5215 109.671 70.7303 109.545C70.9413 109.42 71.1064 109.247 71.2257 109.028C71.3472 108.806 71.4079 108.556 71.4079 108.277C71.4079 107.991 71.345 107.737 71.2193 107.513C71.0957 107.287 70.9253 107.109 70.7079 106.979C70.4906 106.849 70.2424 106.783 69.9633 106.781C69.763 106.779 69.5574 106.81 69.3464 106.874C69.1355 106.935 68.9619 107.015 68.8255 107.113L68.084 107.024L68.4803 103.802H71.8809V104.505H69.1451L68.915 106.436H68.9533C69.0876 106.329 69.2559 106.241 69.4583 106.17C69.6607 106.1 69.8717 106.065 70.0911 106.065C70.4917 106.065 70.8486 106.161 71.1618 106.353C71.4771 106.542 71.7243 106.802 71.9033 107.132C72.0844 107.463 72.1749 107.84 72.1749 108.264C72.1749 108.681 72.0812 109.054 71.8937 109.382C71.7083 109.708 71.4526 109.966 71.1266 110.156C70.8006 110.343 70.4299 110.437 70.0144 110.437Z" fill="#4F4F4F"/>
<path d="M56.9059 84.7946C56.6375 84.7903 56.369 84.7392 56.1005 84.6412C55.8321 84.5431 55.587 84.378 55.3654 84.1458C55.1438 83.9114 54.9659 83.595 54.8317 83.1966C54.6975 82.796 54.6304 82.2931 54.6304 81.688C54.6304 81.1085 54.6847 80.595 54.7934 80.1475C54.902 79.698 55.0597 79.3198 55.2664 79.013C55.473 78.704 55.7223 78.4696 56.0142 78.3098C56.3083 78.15 56.6396 78.0701 57.0082 78.0701C57.3747 78.0701 57.7007 78.1436 57.9862 78.2907C58.2738 78.4355 58.5082 78.638 58.6893 78.8979C58.8704 79.1578 58.9876 79.4572 59.0409 79.796H58.261C58.1886 79.502 58.048 79.258 57.8392 79.0641C57.6304 78.8702 57.3534 78.7733 57.0082 78.7733C56.5011 78.7733 56.1016 78.9938 55.8097 79.4348C55.5199 79.8759 55.374 80.4949 55.3718 81.2917H55.423C55.5423 81.1106 55.684 80.9561 55.848 80.8283C56.0142 80.6983 56.1975 80.5982 56.3978 80.5279C56.598 80.4576 56.81 80.4224 57.0338 80.4224C57.4088 80.4224 57.7518 80.5162 58.0629 80.7037C58.374 80.889 58.6233 81.1458 58.8108 81.4739C58.9983 81.7999 59.092 82.1738 59.092 82.5957C59.092 83.0005 59.0014 83.3713 58.8203 83.7079C58.6392 84.0424 58.3846 84.3088 58.0565 84.5069C57.7305 84.7029 57.347 84.7988 56.9059 84.7946ZM56.9059 84.0914C57.1744 84.0914 57.4152 84.0243 57.6282 83.8901C57.8434 83.7559 58.0128 83.5758 58.1364 83.35C58.2621 83.1241 58.325 82.8727 58.325 82.5957C58.325 82.3251 58.2642 82.079 58.1428 81.8574C58.0235 81.6337 57.8583 81.4558 57.6474 81.3237C57.4386 81.1916 57.2 81.1255 56.9315 81.1255C56.7291 81.1255 56.5405 81.166 56.3658 81.247C56.1911 81.3258 56.0377 81.4345 55.9056 81.573C55.7756 81.7115 55.6733 81.8702 55.5987 82.0492C55.5242 82.226 55.4869 82.4125 55.4869 82.6085C55.4869 82.8684 55.5476 83.1113 55.6691 83.3372C55.7926 83.563 55.961 83.7452 56.174 83.8837C56.3892 84.0222 56.6332 84.0914 56.9059 84.0914ZM60.6037 84.7562C60.446 84.7562 60.3108 84.6998 60.1978 84.5868C60.0849 84.4739 60.0284 84.3386 60.0284 84.1809C60.0284 84.0233 60.0849 83.888 60.1978 83.775C60.3108 83.6621 60.446 83.6056 60.6037 83.6056C60.7614 83.6056 60.8967 83.6621 61.0096 83.775C61.1225 83.888 61.179 84.0233 61.179 84.1809C61.179 84.2853 61.1524 84.3812 61.0991 84.4686C61.048 84.5559 60.9787 84.6262 60.8914 84.6795C60.8061 84.7306 60.7103 84.7562 60.6037 84.7562ZM62.5197 84.7051V84.1298L64.6802 81.7647C64.9338 81.4877 65.1426 81.247 65.3067 81.0424C65.4707 80.8358 65.5922 80.6419 65.671 80.4608C65.752 80.2775 65.7925 80.0858 65.7925 79.8855C65.7925 79.6554 65.7371 79.4561 65.6263 79.2878C65.5176 79.1195 65.3685 78.9895 65.1788 78.8979C64.9892 78.8063 64.7761 78.7605 64.5396 78.7605C64.2882 78.7605 64.0687 78.8127 63.8812 78.9171C63.6959 79.0194 63.5521 79.1632 63.4498 79.3485C63.3496 79.5339 63.2996 79.7512 63.2996 80.0005H62.5453C62.5453 79.617 62.6337 79.2804 62.8106 78.9906C62.9874 78.7008 63.2282 78.475 63.5329 78.313C63.8397 78.1511 64.1838 78.0701 64.5652 78.0701C64.9487 78.0701 65.2886 78.1511 65.5847 78.313C65.8809 78.475 66.1131 78.6934 66.2815 78.9682C66.4498 79.2431 66.5339 79.5488 66.5339 79.8855C66.5339 80.1262 66.4903 80.3617 66.4029 80.5918C66.3177 80.8198 66.1685 81.0744 65.9555 81.3556C65.7445 81.6348 65.4516 81.9757 65.0766 82.3784L63.6064 83.9508V84.002H66.649V84.7051H62.5197ZM70.0144 84.7946C69.6394 84.7946 69.3017 84.72 69.0013 84.5708C68.7008 84.4217 68.4601 84.2172 68.279 83.9572C68.0979 83.6973 67.9988 83.4011 67.9817 83.0687H68.7488C68.7786 83.3649 68.9128 83.6099 69.1515 83.8038C69.3922 83.9956 69.6799 84.0914 70.0144 84.0914C70.2829 84.0914 70.5215 84.0286 70.7303 83.9029C70.9413 83.7772 71.1064 83.6046 71.2257 83.3851C71.3472 83.1635 71.4079 82.9132 71.4079 82.6341C71.4079 82.3485 71.345 82.0939 71.2193 81.8702C71.0957 81.6444 70.9253 81.4664 70.7079 81.3365C70.4906 81.2065 70.2424 81.1404 69.9633 81.1383C69.763 81.1362 69.5574 81.1671 69.3464 81.231C69.1355 81.2928 68.9619 81.3727 68.8255 81.4707L68.084 81.3812L68.4803 78.1596H71.8809V78.8627H69.1451L68.915 80.7931H68.9533C69.0876 80.6866 69.2559 80.5982 69.4583 80.5279C69.6607 80.4576 69.8717 80.4224 70.0911 80.4224C70.4917 80.4224 70.8486 80.5183 71.1618 80.71C71.4771 80.8997 71.7243 81.1596 71.9033 81.4899C72.0844 81.8201 72.1749 82.1973 72.1749 82.6213C72.1749 83.0389 72.0812 83.4118 71.8937 83.7399C71.7083 84.0659 71.4526 84.3237 71.1266 84.5133C70.8006 84.7008 70.4299 84.7946 70.0144 84.7946Z" fill="#4F4F4F"/>
<path d="M61.8102 60.2842L64.7378 54.493V54.4418H61.3628V53.7387H65.556V54.4802L62.6412 60.2842H61.8102ZM66.1848 60.3353C66.0271 60.3353 65.8918 60.2789 65.7789 60.1659C65.666 60.053 65.6095 59.9177 65.6095 59.76C65.6095 59.6024 65.666 59.4671 65.7789 59.3541C65.8918 59.2412 66.0271 59.1847 66.1848 59.1847C66.3424 59.1847 66.4777 59.2412 66.5907 59.3541C66.7036 59.4671 66.7601 59.6024 66.7601 59.76C66.7601 59.8644 66.7334 59.9603 66.6802 60.0477C66.629 60.135 66.5598 60.2053 66.4724 60.2586C66.3872 60.3097 66.2913 60.3353 66.1848 60.3353ZM70.0144 60.3737C69.6394 60.3737 69.3017 60.2991 69.0013 60.1499C68.7008 60.0008 68.4601 59.7963 68.279 59.5363C68.0979 59.2764 67.9988 58.9802 67.9817 58.6478H68.7488C68.7786 58.944 68.9128 59.189 69.1515 59.3829C69.3922 59.5747 69.6799 59.6705 70.0144 59.6705C70.2829 59.6705 70.5215 59.6077 70.7303 59.482C70.9413 59.3563 71.1064 59.1837 71.2257 58.9642C71.3472 58.7426 71.4079 58.4923 71.4079 58.2132C71.4079 57.9276 71.345 57.673 71.2193 57.4493C71.0957 57.2235 70.9253 57.0455 70.7079 56.9156C70.4906 56.7856 70.2424 56.7195 69.9633 56.7174C69.763 56.7153 69.5574 56.7462 69.3464 56.8101C69.1355 56.8719 68.9619 56.9518 68.8255 57.0498L68.084 56.9603L68.4803 53.7387H71.8809V54.4418H69.1451L68.915 56.3722H68.9533C69.0876 56.2657 69.2559 56.1773 69.4583 56.107C69.6607 56.0367 69.8717 56.0015 70.0911 56.0015C70.4917 56.0015 70.8486 56.0974 71.1618 56.2892C71.4771 56.4788 71.7243 56.7387 71.9033 57.069C72.0844 57.3992 72.1749 57.7764 72.1749 58.2004C72.1749 58.618 72.0812 58.9909 71.8937 59.319C71.7083 59.645 71.4526 59.9028 71.1266 60.0924C70.8006 60.2799 70.4299 60.3737 70.0144 60.3737Z" fill="#4F4F4F"/>
<path d="M57.3214 34.7321C56.8825 34.7321 56.4947 34.6543 56.1581 34.4988C55.8235 34.3411 55.5625 34.1248 55.375 33.85C55.1875 33.573 55.0948 33.2576 55.097 32.9039C55.0948 32.627 55.1492 32.3713 55.26 32.1369C55.3708 31.9004 55.522 31.7033 55.7138 31.5456C55.9077 31.3858 56.124 31.2846 56.3626 31.242V31.2037C56.0494 31.1227 55.8001 30.9469 55.6147 30.6763C55.4294 30.4036 55.3377 30.0936 55.3399 29.7463C55.3377 29.4139 55.4219 29.1167 55.5924 28.8546C55.7628 28.5925 55.9972 28.3858 56.2955 28.2346C56.5959 28.0833 56.9379 28.0076 57.3214 28.0076C57.7007 28.0076 58.0394 28.0833 58.3377 28.2346C58.636 28.3858 58.8704 28.5925 59.0409 28.8546C59.2134 29.1167 59.3008 29.4139 59.3029 29.7463C59.3008 30.0936 59.206 30.4036 59.0185 30.6763C58.8331 30.9469 58.587 31.1227 58.2802 31.2037V31.242C58.5167 31.2846 58.7298 31.3858 58.9194 31.5456C59.109 31.7033 59.2603 31.9004 59.3733 32.1369C59.4862 32.3713 59.5437 32.627 59.5458 32.9039C59.5437 33.2576 59.4478 33.573 59.2582 33.85C59.0707 34.1248 58.8097 34.3411 58.4752 34.4988C58.1428 34.6543 57.7582 34.7321 57.3214 34.7321ZM57.3214 34.0289C57.6176 34.0289 57.8733 33.981 58.0884 33.8851C58.3036 33.7892 58.4698 33.6539 58.587 33.4792C58.7042 33.3045 58.7639 33.1 58.766 32.8656C58.7639 32.6184 58.7 32.4 58.5742 32.2104C58.4485 32.0208 58.277 31.8716 58.0597 31.763C57.8445 31.6543 57.5984 31.6 57.3214 31.6C57.0423 31.6 56.793 31.6543 56.5735 31.763C56.3562 31.8716 56.1847 32.0208 56.059 32.2104C55.9354 32.4 55.8747 32.6184 55.8768 32.8656C55.8747 33.1 55.9311 33.3045 56.0462 33.4792C56.1634 33.6539 56.3306 33.7892 56.548 33.8851C56.7653 33.981 57.0231 34.0289 57.3214 34.0289ZM57.3214 30.9224C57.5558 30.9224 57.7635 30.8755 57.9446 30.7818C58.1279 30.688 58.2717 30.557 58.3761 30.3887C58.4805 30.2203 58.5338 30.0233 58.5359 29.7974C58.5338 29.5758 58.4816 29.383 58.3793 29.2189C58.277 29.0527 58.1353 28.9249 57.9542 28.8354C57.7731 28.7438 57.5622 28.698 57.3214 28.698C57.0764 28.698 56.8622 28.7438 56.679 28.8354C56.4958 28.9249 56.3541 29.0527 56.2539 29.2189C56.1538 29.383 56.1048 29.5758 56.1069 29.7974C56.1048 30.0233 56.1549 30.2203 56.2571 30.3887C56.3615 30.557 56.5054 30.688 56.6886 30.7818C56.8718 30.8755 57.0828 30.9224 57.3214 30.9224ZM61.1311 34.6937C60.9734 34.6937 60.8381 34.6373 60.7252 34.5243C60.6122 34.4114 60.5558 34.2761 60.5558 34.1184C60.5558 33.9608 60.6122 33.8255 60.7252 33.7125C60.8381 33.5996 60.9734 33.5431 61.1311 33.5431C61.2887 33.5431 61.424 33.5996 61.537 33.7125C61.6499 33.8255 61.7063 33.9608 61.7063 34.1184C61.7063 34.2228 61.6797 34.3187 61.6264 34.4061C61.5753 34.4934 61.5061 34.5637 61.4187 34.617C61.3335 34.6681 61.2376 34.6937 61.1311 34.6937ZM63.1198 34.6426L66.0473 28.8514V28.8002H62.6723V28.0971H66.8655V28.8386L63.9508 34.6426H63.1198ZM70.0144 34.7321C69.6394 34.7321 69.3017 34.6575 69.0013 34.5083C68.7008 34.3592 68.4601 34.1547 68.279 33.8947C68.0979 33.6348 67.9988 33.3386 67.9817 33.0062H68.7488C68.7786 33.3024 68.9128 33.5474 69.1515 33.7413C69.3922 33.9331 69.6799 34.0289 70.0144 34.0289C70.2829 34.0289 70.5215 33.9661 70.7303 33.8404C70.9413 33.7147 71.1064 33.5421 71.2257 33.3226C71.3472 33.101 71.4079 32.8507 71.4079 32.5716C71.4079 32.286 71.345 32.0314 71.2193 31.8077C71.0957 31.5819 70.9253 31.4039 70.7079 31.274C70.4906 31.144 70.2424 31.0779 69.9633 31.0758C69.763 31.0737 69.5574 31.1046 69.3464 31.1685C69.1355 31.2303 68.9619 31.3102 68.8255 31.4082L68.084 31.3187L68.4803 28.0971H71.8809V28.8002H69.1451L68.915 30.7306H68.9533C69.0876 30.6241 69.2559 30.5357 69.4583 30.4654C69.6607 30.3951 69.8717 30.3599 70.0911 30.3599C70.4917 30.3599 70.8486 30.4558 71.1618 30.6475C71.4771 30.8372 71.7243 31.0971 71.9033 31.4274C72.0844 31.7576 72.1749 32.1348 72.1749 32.5588C72.1749 32.9764 72.0812 33.3493 71.8937 33.6774C71.7083 34.0034 71.4526 34.2612 71.1266 34.4508C70.8006 34.6383 70.4299 34.7321 70.0144 34.7321Z" fill="#4F4F4F"/>
<path d="M65.9371 2.45455V9H65.1445V3.28551H65.1061L63.5081 4.34659V3.54119L65.1445 2.45455H65.9371ZM69.9545 9.08949C69.4729 9.08949 69.0628 8.95845 68.724 8.69638C68.3852 8.43217 68.1264 8.04972 67.9474 7.54901C67.7684 7.04616 67.6789 6.43892 67.6789 5.72727C67.6789 5.01989 67.7684 4.41584 67.9474 3.91513C68.1285 3.41229 68.3884 3.02876 68.7272 2.76456C69.0681 2.49822 69.4772 2.36506 69.9545 2.36506C70.4318 2.36506 70.8398 2.49822 71.1786 2.76456C71.5195 3.02876 71.7794 3.41229 71.9584 3.91513C72.1395 4.41584 72.2301 5.01989 72.2301 5.72727C72.2301 6.43892 72.1406 7.04616 71.9616 7.54901C71.7826 8.04972 71.5237 8.43217 71.185 8.69638C70.8462 8.95845 70.436 9.08949 69.9545 9.08949ZM69.9545 8.38636C70.4318 8.38636 70.8025 8.15625 71.0667 7.69602C71.3309 7.2358 71.463 6.57955 71.463 5.72727C71.463 5.16051 71.4023 4.67791 71.2808 4.27947C71.1615 3.88104 70.9889 3.57741 70.7631 3.36861C70.5394 3.1598 70.2698 3.0554 69.9545 3.0554C69.4815 3.0554 69.1118 3.28871 68.8455 3.75533C68.5791 4.21982 68.446 4.87713 68.446 5.72727C68.446 6.29403 68.5056 6.77557 68.6249 7.17188C68.7443 7.56818 68.9158 7.86967 69.1395 8.07635C69.3653 8.28303 69.637 8.38636 69.9545 8.38636Z" fill="#4F4F4F"/>
<rect x="786.961" y="53.7266" width="18.8655" height="161.179" fill="#F94144"/>
<rect x="727.67" y="94.0215" width="18.8655" height="120.884" fill="#F94144"/>
<rect x="668.378" y="13.4316" width="16.1704" height="201.474" fill="#F94144"/>
<rect x="606.392" y="53.7266" width="18.8655" height="161.179" fill="#F94144"/>
<rect x="541.71" y="134.316" width="18.8655" height="80.5895" fill="#F94144"/>
<rect x="479.724" y="153.853" width="16.1704" height="61.0526" fill="#F94144"/>
<rect x="417.737" y="13.4316" width="16.1704" height="201.474" fill="#F94144"/>
<rect x="363.835" y="114.779" width="18.8655" height="100.126" fill="#F94144"/>
<rect x="293.763" y="74.4844" width="18.8655" height="140.421" fill="#F94144"/>
<rect x="231.776" y="153.853" width="16.1704" height="61.0526" fill="#F94144"/>
<rect x="169.79" y="134.316" width="18.8655" height="80.5895" fill="#F94144"/>
<rect x="113.193" y="113.558" width="18.8655" height="101.347" fill="#F94144"/>
</svg>
