<svg width="228" height="228" viewBox="0 0 228 228" fill="none" xmlns="http://www.w3.org/2000/svg">
<path d="M114 228C143.076 228 171.053 216.89 192.208 196.943L159.734 162.503C147.363 174.168 131.003 180.664 114 180.664L114 228Z" fill="#90BE6D"/>
<path d="M114 228C128.971 228 143.795 225.051 157.626 219.322C171.457 213.593 184.024 205.196 194.61 194.61C205.196 184.024 213.593 171.457 219.322 157.626C225.051 143.795 228 128.971 228 114L180.664 114C180.664 122.754 178.94 131.423 175.59 139.511C172.24 147.599 167.329 154.948 161.139 161.139C154.948 167.329 147.599 172.24 139.511 175.59C131.423 178.94 122.754 180.664 114 180.664L114 228Z" fill="#F9C74F"/>
<path d="M9.9662e-06 114C8.65742e-06 128.971 2.94871 143.795 8.67774 157.626C14.4068 171.457 22.804 184.024 33.3898 194.61C43.9757 205.196 56.543 213.593 70.3741 219.322C84.2052 225.051 99.0293 228 114 228L114 180.664C105.246 180.664 96.5768 178.94 88.4887 175.59C80.4006 172.24 73.0516 167.329 66.8612 161.139C60.6709 154.948 55.7604 147.599 52.4102 139.511C49.06 131.423 47.3357 122.754 47.3357 114L9.9662e-06 114Z" fill="#F3722C"/>
<path d="M194.61 33.3898C184.024 22.804 171.457 14.4068 157.626 8.67773C143.795 2.9487 128.971 0 114 0V47.3357C122.754 47.3357 131.423 49.06 139.511 52.4102C147.599 55.7604 154.948 60.6709 161.139 66.8612L194.61 33.3898Z" fill="#2D9CDB"/>
<path d="M228 114C228 99.0293 225.051 84.2052 219.322 70.3741C213.593 56.543 205.196 43.9757 194.61 33.3898L161.139 66.8612C167.329 73.0516 172.24 80.4006 175.59 88.4887C178.94 96.5768 180.664 105.246 180.664 114L228 114Z" fill="#F8961E"/>
<path d="M114 0C99.0293 -1.78524e-07 84.2052 2.9487 70.3741 8.67773C56.543 14.4068 43.9757 22.8039 33.3898 33.3898C22.8039 43.9757 14.4068 56.543 8.67773 70.3741C2.9487 84.2052 -4.75866e-07 99.0293 0 114C4.75866e-07 128.971 2.9487 143.795 8.67774 157.626C14.4068 171.457 22.804 184.024 33.3898 194.61C43.9757 205.196 56.543 213.593 70.3741 219.322C84.2052 225.051 99.0293 228 114 228V180.664C105.246 180.664 96.5768 178.94 88.4887 175.59C80.4006 172.24 73.0516 167.329 66.8612 161.139C60.6709 154.948 55.7604 147.599 52.4102 139.511C49.06 131.423 47.3357 122.754 47.3357 114C47.3357 105.246 49.06 96.5768 52.4102 88.4887C55.7604 80.4006 60.6709 73.0516 66.8612 66.8612C73.0516 60.6709 80.4006 55.7604 88.4887 52.4102C96.5768 49.06 105.246 47.3357 114 47.3357V0Z" fill="#F94144"/>
</svg>
