<svg width="17" height="16" viewBox="0 0 17 16" fill="none" xmlns="http://www.w3.org/2000/svg">
<path d="M8.33333 5.33366C9.06667 5.33366 9.66667 4.73366 9.66667 4.00033C9.66667 3.26699 9.06667 2.66699 8.33333 2.66699C7.6 2.66699 7 3.26699 7 4.00033C7 4.73366 7.6 5.33366 8.33333 5.33366ZM8.33333 6.66699C7.6 6.66699 7 7.26699 7 8.00033C7 8.73366 7.6 9.33366 8.33333 9.33366C9.06667 9.33366 9.66667 8.73366 9.66667 8.00033C9.66667 7.26699 9.06667 6.66699 8.33333 6.66699ZM8.33333 10.667C7.6 10.667 7 11.267 7 12.0003C7 12.7337 7.6 13.3337 8.33333 13.3337C9.06667 13.3337 9.66667 12.7337 9.66667 12.0003C9.66667 11.267 9.06667 10.667 8.33333 10.667Z" fill="black"/>
</svg>
